<?xml version="1.0" standalone="no"?>
<svg xmlns:xlink="http://www.w3.org/1999/xlink" id="wave" style="transform:rotate(180deg); transition: 0.3s" viewBox="0 0 1440 1000" version="1.1" xmlns="http://www.w3.org/2000/svg"><defs><linearGradient id="sw-gradient-0" x1="0" x2="0" y1="1" y2="0"><stop stop-color="rgba(219, 133, 180, 1)" offset="0%"/><stop stop-color="rgba(176, 151, 242, 1)" offset="100%"/></linearGradient></defs><path style="transform:translate(0, 0px); opacity:1" fill="url(#sw-gradient-0)" d="M0,400L60,450C120,500,240,600,360,666.7C480,733,600,767,720,716.7C840,667,960,533,1080,466.7C1200,400,1320,400,1440,366.7C1560,333,1680,267,1800,266.7C1920,267,2040,333,2160,450C2280,567,2400,733,2520,733.3C2640,733,2760,567,2880,550C3000,533,3120,667,3240,600C3360,533,3480,267,3600,183.3C3720,100,3840,200,3960,200C4080,200,4200,100,4320,133.3C4440,167,4560,333,4680,450C4800,567,4920,633,5040,700C5160,767,5280,833,5400,833.3C5520,833,5640,767,5760,700C5880,633,6000,567,6120,566.7C6240,567,6360,633,6480,683.3C6600,733,6720,767,6840,683.3C6960,600,7080,400,7200,316.7C7320,233,7440,267,7560,366.7C7680,467,7800,633,7920,683.3C8040,733,8160,667,8280,633.3C8400,600,8520,600,8580,600L8640,600L8640,1000L8580,1000C8520,1000,8400,1000,8280,1000C8160,1000,8040,1000,7920,1000C7800,1000,7680,1000,7560,1000C7440,1000,7320,1000,7200,1000C7080,1000,6960,1000,6840,1000C6720,1000,6600,1000,6480,1000C6360,1000,6240,1000,6120,1000C6000,1000,5880,1000,5760,1000C5640,1000,5520,1000,5400,1000C5280,1000,5160,1000,5040,1000C4920,1000,4800,1000,4680,1000C4560,1000,4440,1000,4320,1000C4200,1000,4080,1000,3960,1000C3840,1000,3720,1000,3600,1000C3480,1000,3360,1000,3240,1000C3120,1000,3000,1000,2880,1000C2760,1000,2640,1000,2520,1000C2400,1000,2280,1000,2160,1000C2040,1000,1920,1000,1800,1000C1680,1000,1560,1000,1440,1000C1320,1000,1200,1000,1080,1000C960,1000,840,1000,720,1000C600,1000,480,1000,360,1000C240,1000,120,1000,60,1000L0,1000Z"/></svg>